<?xml version="1.0" encoding="UTF-8"?>
<svg id="Layer_1" xmlns="http://www.w3.org/2000/svg" version="1.1" viewBox="0 0 841.89 595.28">
  <!-- Generator: Adobe Illustrator 29.5.1, SVG Export Plug-In . SVG Version: 2.1.0 Build 141)  -->
  <defs>
    <style>
      .st0 {
        fill: #0d1d25;
      }

      .st1 {
        fill: #8c2c1d;
      }
    </style>
  </defs>
  <path class="st0" d="M589.57,373.16h-156.47c-2.45,0-4.71-1.32-5.88-3.45l-6.18-11.16-18.24-32.96c-2.45-4.43.78-9.84,5.88-9.84h21.79c5.1,0,8.34-5.41,5.88-9.84l-26.32-47.55c-2.52-4.54-9.08-4.62-11.69-.13l-79.65,136.68c-1.2,2.06-3.41,3.32-5.81,3.32h-60.55c-5.17,0-8.39-5.54-5.81-9.97l116.08-199.2c2.89-4.96,2.96-11.06.18-16.09l-22.94-41.46c-3.86-6.98-1.28-15.75,5.76-19.57l30.8-16.73c7.84-4.26,17.67-1.41,21.97,6.35l10.23,18.48,34.24,61.84,72.19,130.42c1.18,2.13,3.43,3.45,5.88,3.45h44.24c2.45,0,4.7,1.32,5.88,3.45l6.18,11.17,18.24,32.96c2.45,4.43-.78,9.84-5.88,9.84Z"/>
  <path class="st1" d="M586.18,477.39l-43.58,23.68c-3.91,2.13-8.82.71-10.97-3.17l-51.89-93.75c-2.95-5.33.94-11.85,7.08-11.85h56.68c2.95,0,5.66,1.59,7.08,4.16l38.79,70.07c2.15,3.88.71,8.74-3.2,10.87Z"/>
</svg>